# xmcd
#
# Track frame offsets:
#	150
#	13286
#	30880
#	48419
#	64911
#	83676
#	99900
#	116237
#	130935
#	157278
#	172609
#	193994
#	206066
#	224152
#	239982
#	259120
#	271636
#	285566
#	302112
#
# Disc length: 4275 seconds
#
# Revision: 0
# Processed by: cddbd v1.5.2PL0 Copyright (c) Steve Scherf et al.
# Submitted via: dBpowerAMP V4.0
#
DISCID=1d10b113
DTITLE=Diversos - Music With Words - Sax - I
DYEAR=1900
DGENRE=blues
TTITLE0=True love ways
TTITLE1=Killing me softly with his song
TTITLE2=Drive
TTITLE3=Imagine
TTITLE4=Smooth operator
TTITLE5=Morning dance
TTITLE6=How deep is your love
TTITLE7=Unforgettable
TTITLE8=Winelight
TTITLE9=Time after time
TTITLE10=Misty
TTITLE11=What a wonderful world
TTITLE12=The power of love
TTITLE13=Unchained melody
TTITLE14=Careless whisper
TTITLE15=Take five
TTITLE16=The girl from ipanema
TTITLE17=Lily was here
TTITLE18=I will always love you
EXTD=
EXTT0=
EXTT1=
EXTT2=
EXTT3=
EXTT4=
EXTT5=
EXTT6=
EXTT7=
EXTT8=
EXTT9=
EXTT10=
EXTT11=
EXTT12=
EXTT13=
EXTT14=
EXTT15=
EXTT16=
EXTT17=
EXTT18=
PLAYORDER=
